<svg version="1.0" xmlns="http://www.w3.org/2000/svg" width="346.667" height="346.667" viewBox="0 0 260 260"><path d="M112 1.2C82.6 5.8 59.4 17.6 38.5 38.5 12 64.9-.4 95.7.5 133c.2 8 .6 15.8 1 17.5 2.1 10.1 2.8 12.8 5.1 20 6.1 19.1 16.3 35.6 31.8 51 19.7 19.6 39.5 30.3 67.1 36.2 11.3 2.4 37.9 2.3 49.5-.1 49.3-10.5 86.9-45.5 100.4-93.6.9-3 1.8-7.3 2.2-9.5.3-2.2 1-6 1.4-8.5.9-4.8.6-30.4-.4-35.5-.4-1.7-1.1-5.3-1.6-8-2.9-14.3-10.4-31.7-19.5-45.6-6.4-9.6-25-28.2-34.4-34.3-14.4-9.4-31.4-16.7-45.6-19.6-2.7-.5-6.3-1.2-8-1.6-5-1-31.6-1.2-37.5-.2zM149.5 55c16.6 5.4 28.4 13.3 38.6 26 5.1 6.3 6.1 8.7 5.4 12.1-1.6 7-9.4 9.3-14.3 4.1-1.5-1.6-5.1-5.4-8-8.5-16.1-17-38.3-23.2-59.7-16.6-9.8 3-17 7.3-24.5 14.9-11 11-17 25.1-17.2 40.1-.2 23.5 11.9 43.9 31.4 53.3 4.3 2.1 8.8 3.9 10 4.1 1.3.3 4.4.9 7 1.3 18.5 3.5 40.1-3.5 53-17.2 4.9-5.2 4.7-5.4-7.1-5.1-8 .2-11.6-.1-13.9-1.2-5.7-2.8-6.5-10.3-1.5-14.3 2.4-1.9 4.2-2 27.9-2h25.3l-.2 26.9c-.2 24.8-.3 27.1-2.1 29-2.3 2.5-7.7 3.7-10.5 2.2-3.7-2-5-6-4.6-14.7.1-4.3.6-8.8 1.1-9.8.4-1.1-1-.2-3.2 2-13.3 13.6-30.4 21.1-50 22.1-15.1.8-24.7-1.2-38.2-7.8-8.4-4.2-11.7-6.5-18.5-13.2-9.2-9-12.1-13-16.6-22.7-4.8-10.3-6.5-18.2-6.5-30.5-.1-15.1 1.2-21.1 7.3-34.6 5-11 17.6-24.8 28.8-31.5 7.3-4.4 19.1-9.1 25.2-10 2-.3 3.8-.7 4-.9.2-.2 5.8-.2 12.5-.1 9.2.3 13.8.9 19.1 2.6z"/></svg>